<svg width="53" height="53" viewBox="0 0 53 53" fill="#44f9c3" xmlns="http://www.w3.org/2000/svg">
<path d="M48.9992 36.2729L47.8069 37.7888C47.2745 38.3517 46.6762 38.8504 46.0298 39.2776L42.49 41.3301L28.9585 49.4321C28.2561 49.859 27.4916 50.5018 26.6314 50.5187C25.5199 50.5405 24.693 49.8261 23.7971 49.2704L15.1114 44.0262L9.36112 40.6495C8.01926 39.8569 6.64619 39.1798 5.51432 38.0823C2.99822 35.6425 2.33157 32.946 2.32993 29.62L2.33666 19.1447C2.62745 19.3393 3.07463 19.536 3.42649 19.7524L9.59757 23.4433C9.79299 23.5618 9.72721 23.712 9.72771 23.9192L9.72297 29.806C9.72011 32.6475 11.367 33.0806 13.53 34.379L20.2682 38.4182C20.7137 38.6909 21.2621 39.0304 21.8065 38.8857C22.2095 38.7786 22.4287 38.4652 22.4385 38.0664L22.4396 27.9295C22.4392 27.2653 22.305 27.1321 21.7232 26.7478L3.00054 15.6029C2.79605 15.4786 2.59879 15.3379 2.37496 15.2502L2.32723 9.09894C2.31972 8.31152 2.23457 7.37501 3.27367 7.13288L3.48248 7.09856C3.97262 7.06709 4.28805 7.31299 4.67677 7.56205L25.7988 20.4087C26.538 20.8315 26.6039 20.7458 27.3018 20.3454L46.8981 8.45226C47.5595 8.04057 48.2234 7.57751 48.9219 7.23452C49.6302 6.88672 50.533 7.21123 50.6696 8.05453C50.7248 8.39548 50.6946 8.77994 50.6952 9.12592L50.6957 13.9069C50.6955 14.335 50.7232 14.7836 50.6941 15.2086C50.6846 15.3496 50.3666 15.4228 50.2451 15.4877L43.7894 19.3615L31.8769 26.4165C31.1943 26.84 30.6216 27.0051 30.5922 27.8888L30.585 37.0699C30.585 37.4454 30.5493 37.8667 30.5991 38.2371C30.7103 39.0648 31.769 38.949 32.3179 38.6714C32.688 38.4841 33.0397 38.2486 33.3917 38.0295L39.9917 34.0793C42.1251 32.7837 43.3737 32.3746 43.3823 29.6879L43.3796 23.5383C43.4337 23.4216 43.6345 23.3195 43.7433 23.2504L50.6794 19.1128C50.7491 19.4668 50.6996 19.923 50.6989 20.2876L50.6908 31.0524C50.6183 32.8441 49.9623 34.7643 48.9992 36.2729Z" fill="#44f9c3"/>
<path d="M33.9143 33.9228L33.9017 29.4487C33.9021 29.2851 33.8423 29.0893 34.0095 28.9907L39.2913 25.8594C39.4885 25.7399 39.6853 25.6053 39.9041 25.5295L39.9582 25.5348C40.0053 25.6582 39.9947 25.8248 39.9975 25.9566L40.0056 29.803C40.0024 30.4358 39.7833 30.3279 39.1926 30.7084L35.1736 33.184C34.7587 33.4404 34.3499 33.7021 33.9143 33.9228Z" fill="#44f9c3"/>
<path d="M19.1408 33.9136L13.131 30.2615C13.0982 30.096 13.1171 29.9001 13.1177 29.7303L13.0912 25.5524C13.7277 25.7502 14.3322 26.1902 14.9087 26.5248L19.0973 29.0182C19.1484 29.1697 19.1285 29.3832 19.1288 29.5438L19.1408 33.9136Z" fill="#44f9c3"/>
</svg>
