<svg width="55" height="55" viewBox="0 0 55 55" fill="none" xmlns="http://www.w3.org/2000/svg">
<path d="M30.03 18.15C30.36 17.765 31.075 17.435 32.01 17.435C32.89 17.435 33.99 17.545 35.035 17.875L35.915 13.255C34.155 12.65 32.34 12.485 30.47 12.485C28.6 12.485 27.115 12.76 25.905 13.475C24.695 14.135 23.925 14.905 23.485 15.95C23.045 16.94 22.825 18.535 22.825 20.625V22.44H19.195V27.72H22.825V44.33C24.365 44.66 25.96 44.825 27.61 44.825C28.215 44.825 28.875 44.825 29.48 44.715V27.72H34.32V22.44H29.48V20.735C29.48 19.415 29.645 18.645 30.085 18.15H30.03Z" fill="#fff"/>
<path d="M27.5 52.25C41.169 52.25 52.25 41.169 52.25 27.5C52.25 13.831 41.169 2.75 27.5 2.75C13.831 2.75 2.75 13.831 2.75 27.5C2.75 41.169 13.831 52.25 27.5 52.25Z" stroke="#fff" stroke-width="2" stroke-miterlimit="10"/>
</svg>
