<svg width="17" height="19" viewBox="0 0 17 19" fill="none" xmlns="http://www.w3.org/2000/svg">
<g clip-path="url(#clip0_47_51)">
<path d="M7.62969 19H9.40574C9.46063 18.9898 9.51505 18.9745 9.57042 18.9703C10.072 18.93 10.5751 18.9054 11.0744 18.8488C12.2835 18.7124 13.4699 18.4749 14.6071 18.0356C15.2843 17.7735 15.9288 17.4539 16.4385 16.9261C17.1521 16.1866 17.189 15.2891 16.5326 14.5028C16.1323 14.0232 15.5971 13.7212 15.0325 13.4679C14.0302 13.0184 12.9697 12.7656 11.8893 12.581C11.8434 12.5731 11.7984 12.5578 11.7421 12.5425C11.771 12.4938 11.7885 12.4613 11.8083 12.4307C12.459 11.4315 13.1173 10.4375 13.759 9.43274C14.6676 8.01006 14.935 6.47002 14.5796 4.82932C14.3785 3.90251 13.9672 3.06709 13.3643 2.32815C12.5381 1.31646 11.4974 0.605811 10.223 0.254663C9.78432 0.134058 9.32623 0.0830322 8.87666 0C8.6249 0 8.37266 0 8.1209 0C7.94155 0.0250488 7.76172 0.0487061 7.58236 0.0746826C6.40732 0.245386 5.36431 0.711108 4.47085 1.4751C3.13632 2.61667 2.39761 4.06023 2.28308 5.8002C2.1979 7.0916 2.50976 8.29023 3.20778 9.38496C3.85185 10.3953 4.51438 11.3944 5.16839 12.3987C5.19726 12.4428 5.2195 12.4906 5.25168 12.549C5.19206 12.5625 5.15041 12.5717 5.10877 12.581C4.50303 12.7174 3.89161 12.8352 3.29202 12.9948C2.43215 13.2239 1.60967 13.5458 0.897926 14.0909C0.410494 14.4648 0.0465775 14.9235 0.00398636 15.5539C-0.0414448 16.2293 0.298811 16.7354 0.803753 17.152C1.39104 17.6362 2.0777 17.9405 2.79512 18.1808C4.08279 18.6117 5.41448 18.8237 6.76698 18.9281C7.05471 18.9504 7.34196 18.9759 7.62921 18.9995L7.62969 19ZM8.4976 15.4459C8.44933 15.3763 8.41052 15.3225 8.37456 15.2668C7.01685 13.178 5.66624 11.0855 4.30048 9.00181C3.21867 7.35137 3.0767 5.63088 3.96638 3.88118C4.78365 2.27388 6.14988 1.33733 7.97325 1.15457C9.89884 0.962061 11.4586 1.68013 12.619 3.19883C13.8442 4.80242 13.9237 7.11758 12.8296 8.80095C11.425 10.9626 10.0181 13.1228 8.61212 15.2835C8.57947 15.3336 8.54303 15.3814 8.4976 15.4459ZM8.51747 17.8501C8.1086 17.8501 7.69878 17.8668 7.29132 17.8473C5.89765 17.7805 4.52574 17.581 3.19926 17.1417C2.58406 16.9381 1.98589 16.6932 1.48947 16.2632C1.02759 15.8629 1.00535 15.4867 1.46675 15.0942C1.73413 14.8665 2.04126 14.6703 2.3588 14.5153C3.3313 14.0408 4.38614 13.8395 5.44524 13.6433C5.84275 13.5695 6.02731 13.6845 6.22418 14.0065C6.78402 14.9221 7.38644 15.8132 7.96805 16.7159C8.12043 16.9525 8.31824 17.0838 8.61117 17.0346C8.81514 17.0003 8.93439 16.8611 9.0385 16.6997C9.67926 15.7089 10.3238 14.7208 10.9617 13.7286C11.0318 13.6196 11.0971 13.5802 11.2329 13.608C11.497 13.6623 11.7676 13.685 12.0331 13.7337C13.0312 13.9165 14.015 14.1526 14.9047 14.6536C15.1839 14.8108 15.4452 15.0172 15.6714 15.2427C15.9406 15.5108 15.9264 15.8049 15.6737 16.0869C15.5502 16.2247 15.4082 16.3522 15.2554 16.4575C14.6601 16.8657 13.9857 17.1032 13.2943 17.2962C11.7331 17.7318 10.1331 17.8751 8.517 17.8505L8.51747 17.8501Z" fill="white"/>
<path d="M8.49026 3.37746C6.93048 3.38256 5.65747 4.64196 5.66505 6.17272C5.67262 7.70487 6.95792 8.95314 8.51628 8.94247C10.069 8.93227 11.3339 7.68029 11.332 6.15649C11.3297 4.6248 10.0491 3.37235 8.49026 3.37746ZM6.79939 6.16159C6.79797 5.25426 7.56508 4.49723 8.49215 4.49167C9.41401 4.48564 10.1863 5.23664 10.1972 6.14953C10.2081 7.05964 9.42537 7.83197 8.49499 7.82873C7.56934 7.82594 6.80081 7.0703 6.79939 6.16159Z" fill="white"/>
</g>
<defs>
<clipPath id="clip0_47_51">
<rect width="17" height="19" fill="white" transform="matrix(-1 0 0 1 17 0)"/>
</clipPath>
</defs>
</svg>
