<svg width="168" height="167" viewBox="0 0 168 167" fill="none" xmlns="http://www.w3.org/2000/svg">
<g clip-path="url(#clip0_11_6)">
<path d="M120.18 167C119.59 167 119.01 166.8 118.55 166.41L86.87 139.88H15.26C6.85 139.88 0 133.03 0 124.62V42.9499C0 34.5399 6.85 27.6899 15.26 27.6899H68.2C69.6 27.6899 70.74 28.8299 70.74 30.2299C70.74 31.6299 69.6 32.7699 68.2 32.7699H15.26C9.65 32.7699 5.09 37.3299 5.09 42.9399V124.6C5.09 130.21 9.65 134.77 15.26 134.77H87.79C88.39 134.77 88.97 134.98 89.42 135.36L117.68 159.03L117.86 137.29C117.87 135.89 119.01 134.77 120.4 134.77H152.07C157.68 134.77 162.24 130.21 162.24 124.6V42.9499C162.24 37.3399 157.68 32.7799 152.07 32.7799H100.45C99.05 32.7799 97.91 31.6399 97.91 30.2399C97.91 28.8399 99.05 27.6999 100.45 27.6999H152.07C160.48 27.6999 167.33 34.5499 167.33 42.9599V124.62C167.33 133.03 160.48 139.88 152.07 139.88H122.93L122.73 164.48C122.73 165.46 122.15 166.36 121.25 166.77C120.91 166.93 120.55 167 120.18 167Z" fill="#0D90A4"/>
<path d="M147.98 113.2H144.99C141.82 84.01 118.26 60.95 88.84 58.55V56.96C88.84 54.16 86.57 51.88 83.76 51.88C80.95 51.88 78.68 54.15 78.68 56.96V58.55C49.2299 60.95 25.64 84.08 22.52 113.32H19.01C17.18 113.32 15.7 114.8 15.7 116.63C15.7 118.46 17.18 119.94 19.01 119.94H147.97C149.83 119.94 151.34 118.43 151.34 116.57C151.34 114.71 149.83 113.2 147.97 113.2H147.98ZM131.9 107.4C131.9 107.4 128.79 77.86 93.02 68.97C92.7899 68.97 92.87 64.34 92.87 64.34C92.87 64.34 127.5 67.53 138.21 107.4C138.67 107.63 131.9 107.4 131.9 107.4Z" fill="#FE8C12"/>
<path d="M85.2401 38.12C86.7101 36.24 86.7601 33.57 86.0801 31.29C85.4001 29 84.0901 26.97 83.0101 24.84C80.4701 19.86 79.1201 14.27 79.1201 8.68C79.1201 5.59 79.6201 2.29 81.7001 0C78.1001 2.55 75.9101 6.66 74.4501 10.82C72.9901 14.97 72.1201 19.47 73.0601 23.77C73.9401 27.79 76.3201 31.29 78.1001 35.01C79.8801 38.73 81.0501 43.14 79.3901 46.91L85.2401 38.12Z" fill="#FE8C12"/>
<path d="M85.9501 17.88C84.9301 19.18 84.9001 21.03 85.3701 22.61C85.8401 24.19 86.7501 25.6 87.5001 27.07C89.2601 30.52 90.1901 34.39 90.1901 38.26C90.1901 40.4 89.8401 42.69 88.4101 44.27C90.9001 42.5 92.4201 39.66 93.4301 36.77C94.4401 33.9 95.0401 30.78 94.3901 27.8C93.7801 25.01 92.1301 22.59 90.9001 20.02C89.6701 17.45 88.8601 14.39 90.0001 11.78L85.9501 17.87V17.88Z" fill="#FE8C12"/>
</g>
<defs>
<clipPath id="clip0_11_6">
<rect width="167.33" height="167" fill="white"/>
</clipPath>
</defs>
</svg>
